<svg width="92" height="10" viewBox="0 0 92 10" fill="none" xmlns="http://www.w3.org/2000/svg">
<path d="M2.796 0.576V9H0.744V0.576H2.796ZM11.8191 9H9.76706L6.33506 3.804V9H4.28306V0.576H6.33506L9.76706 5.796V0.576H11.8191V9ZM19.3665 0.576V2.22H17.1345V9H15.0825V2.22H12.8505V0.576H19.3665ZM24.6923 9L22.9403 5.82H22.4483V9H20.3963V0.576H23.8403C24.5043 0.576 25.0683 0.692 25.5323 0.924C26.0043 1.156 26.3563 1.476 26.5883 1.884C26.8203 2.284 26.9363 2.732 26.9363 3.228C26.9363 3.788 26.7763 4.288 26.4563 4.728C26.1443 5.168 25.6803 5.48 25.0643 5.664L27.0083 9H24.6923ZM22.4483 4.368H23.7203C24.0963 4.368 24.3763 4.276 24.5603 4.092C24.7523 3.908 24.8483 3.648 24.8483 3.312C24.8483 2.992 24.7523 2.74 24.5603 2.556C24.3763 2.372 24.0963 2.28 23.7203 2.28H22.4483V4.368ZM32.2085 9.084C31.4165 9.084 30.6885 8.9 30.0245 8.532C29.3685 8.164 28.8445 7.652 28.4525 6.996C28.0685 6.332 27.8765 5.588 27.8765 4.764C27.8765 3.94 28.0685 3.2 28.4525 2.544C28.8445 1.888 29.3685 1.376 30.0245 1.008C30.6885 0.64 31.4165 0.456 32.2085 0.456C33.0005 0.456 33.7245 0.64 34.3805 1.008C35.0445 1.376 35.5645 1.888 35.9405 2.544C36.3245 3.2 36.5165 3.94 36.5165 4.764C36.5165 5.588 36.3245 6.332 35.9405 6.996C35.5565 7.652 35.0365 8.164 34.3805 8.532C33.7245 8.9 33.0005 9.084 32.2085 9.084ZM32.2085 7.212C32.8805 7.212 33.4165 6.988 33.8165 6.54C34.2245 6.092 34.4285 5.5 34.4285 4.764C34.4285 4.02 34.2245 3.428 33.8165 2.988C33.4165 2.54 32.8805 2.316 32.2085 2.316C31.5285 2.316 30.9845 2.536 30.5765 2.976C30.1765 3.416 29.9765 4.012 29.9765 4.764C29.9765 5.508 30.1765 6.104 30.5765 6.552C30.9845 6.992 31.5285 7.212 32.2085 7.212ZM40.8141 0.576C41.7021 0.576 42.4781 0.752 43.1421 1.104C43.8061 1.456 44.3181 1.952 44.6781 2.592C45.0461 3.224 45.2301 3.956 45.2301 4.788C45.2301 5.612 45.0461 6.344 44.6781 6.984C44.3181 7.624 43.8021 8.12 43.1301 8.472C42.4661 8.824 41.6941 9 40.8141 9H37.6581V0.576H40.8141ZM40.6821 7.224C41.4581 7.224 42.0621 7.012 42.4941 6.588C42.9261 6.164 43.1421 5.564 43.1421 4.788C43.1421 4.012 42.9261 3.408 42.4941 2.976C42.0621 2.544 41.4581 2.328 40.6821 2.328H39.7101V7.224H40.6821ZM48.3928 0.576V5.616C48.3928 6.12 48.5168 6.508 48.7648 6.78C49.0128 7.052 49.3768 7.188 49.8568 7.188C50.3368 7.188 50.7048 7.052 50.9608 6.78C51.2168 6.508 51.3448 6.12 51.3448 5.616V0.576H53.3968V5.604C53.3968 6.356 53.2368 6.992 52.9168 7.512C52.5968 8.032 52.1648 8.424 51.6208 8.688C51.0848 8.952 50.4848 9.084 49.8208 9.084C49.1568 9.084 48.5608 8.956 48.0328 8.7C47.5128 8.436 47.1008 8.044 46.7968 7.524C46.4928 6.996 46.3408 6.356 46.3408 5.604V0.576H48.3928ZM54.4897 4.776C54.4897 3.944 54.6698 3.204 55.0298 2.556C55.3898 1.9 55.8898 1.392 56.5298 1.032C57.1778 0.664 57.9098 0.48 58.7258 0.48C59.7258 0.48 60.5818 0.743999 61.2938 1.272C62.0058 1.8 62.4818 2.52 62.7218 3.432H60.4658C60.2978 3.08 60.0578 2.812 59.7458 2.628C59.4418 2.444 59.0938 2.352 58.7018 2.352C58.0698 2.352 57.5578 2.572 57.1658 3.012C56.7738 3.452 56.5778 4.04 56.5778 4.776C56.5778 5.512 56.7738 6.1 57.1658 6.54C57.5578 6.98 58.0698 7.2 58.7018 7.2C59.0938 7.2 59.4418 7.108 59.7458 6.924C60.0578 6.74 60.2978 6.472 60.4658 6.12H62.7218C62.4818 7.032 62.0058 7.752 61.2938 8.28C60.5818 8.8 59.7258 9.06 58.7258 9.06C57.9098 9.06 57.1778 8.88 56.5298 8.52C55.8898 8.152 55.3898 7.644 55.0298 6.996C54.6698 6.348 54.4897 5.608 54.4897 4.776ZM70.0384 0.576V2.22H67.8064V9H65.7544V2.22H63.5224V0.576H70.0384ZM73.1202 0.576V9H71.0682V0.576H73.1202ZM78.5913 9.084C77.7993 9.084 77.0713 8.9 76.4073 8.532C75.7513 8.164 75.2273 7.652 74.8353 6.996C74.4513 6.332 74.2593 5.588 74.2593 4.764C74.2593 3.94 74.4513 3.2 74.8353 2.544C75.2273 1.888 75.7513 1.376 76.4073 1.008C77.0713 0.64 77.7993 0.456 78.5913 0.456C79.3833 0.456 80.1073 0.64 80.7633 1.008C81.4273 1.376 81.9473 1.888 82.3233 2.544C82.7073 3.2 82.8993 3.94 82.8993 4.764C82.8993 5.588 82.7073 6.332 82.3233 6.996C81.9393 7.652 81.4193 8.164 80.7633 8.532C80.1073 8.9 79.3833 9.084 78.5913 9.084ZM78.5913 7.212C79.2633 7.212 79.7993 6.988 80.1993 6.54C80.6073 6.092 80.8113 5.5 80.8113 4.764C80.8113 4.02 80.6073 3.428 80.1993 2.988C79.7993 2.54 79.2633 2.316 78.5913 2.316C77.9113 2.316 77.3673 2.536 76.9593 2.976C76.5593 3.416 76.3593 4.012 76.3593 4.764C76.3593 5.508 76.5593 6.104 76.9593 6.552C77.3673 6.992 77.9113 7.212 78.5913 7.212ZM91.5769 9H89.5249L86.0929 3.804V9H84.0409V0.576H86.0929L89.5249 5.796V0.576H91.5769V9Z" fill="#22A39F"/>
</svg>
